<?xml version="1.0" encoding="utf-8"?>
<!-- Generator: Adobe Illustrator 25.4.1, SVG Export Plug-In . SVG Version: 6.00 Build 0)  -->
<svg version="1.1" id="Layer_1" xmlns="http://www.w3.org/2000/svg" xmlns:xlink="http://www.w3.org/1999/xlink" x="0px" y="0px"
	 viewBox="0 0 72 72" style="enable-background:new 0 0 72 72;" xml:space="preserve">
<style type="text/css">
	.st0{fill:#FFFFFF;}
</style>
<path class="st0" d="M52.6,1H18.8c-9.9,0-18,8.1-18,18v33.8c0,9.9,8.1,18,18,18h33.8c9.9,0,18-8.1,18-18V19C70.6,9.1,62.5,1,52.6,1z
	 M53.3,37.5l-15,15c-0.4,0.4-1,0.7-1.6,0.7c-0.6,0-1.2-0.2-1.6-0.7l-1.4-1.4c-0.4-0.4-0.7-1-0.7-1.6s0.2-1.2,0.7-1.6l8.8-8.8H19.8
	l0.1,0c-1.3,0-2.3-1-2.3-2.3V35c0-1.3,1.1-2.3,2.3-2.3h22.7l-8.9-8.8c-0.4-0.4-0.7-1-0.7-1.6c0-0.6,0.2-1.2,0.7-1.6l1.4-1.4
	c0.4-0.4,1-0.7,1.6-0.7c0.6,0,1.2,0.2,1.6,0.7l15,15c0.4,0.4,0.7,1,0.7,1.6C53.9,36.5,53.7,37.1,53.3,37.5z"/>
</svg>
